<svg width="20" height="20" viewBox="0 0 20 20" fill="none" xmlns="http://www.w3.org/2000/svg">
<path d="M4.64188 6.57196C4.40375 5.00196 5.5125 3.58821 7.20625 3.06946C7.50699 2.97741 7.83151 3.00357 8.11361 3.14259C8.39572 3.28161 8.61416 3.52302 8.72438 3.81758L9.2675 5.26758C9.35483 5.50083 9.37048 5.75484 9.31247 5.99704C9.25445 6.23924 9.1254 6.45859 8.94188 6.62696L7.32625 8.10883C7.24657 8.18203 7.1872 8.27461 7.1539 8.37757C7.12061 8.48052 7.11453 8.59033 7.13625 8.69633L7.15063 8.76133L7.19063 8.92446C7.22625 9.06196 7.28 9.25571 7.35563 9.48696C7.50563 9.94633 7.745 10.5638 8.10125 11.1807C8.4575 11.7976 8.8725 12.3138 9.195 12.6732C9.36297 12.8603 9.53853 13.0405 9.72125 13.2132L9.77125 13.2595C9.85207 13.331 9.95004 13.3804 10.0556 13.4029C10.1612 13.4254 10.2708 13.4201 10.3738 13.3876L12.465 12.7295C12.7026 12.6548 12.9571 12.6528 13.1959 12.7237C13.4346 12.7946 13.6467 12.9353 13.805 13.1276L14.7944 14.3288C15.2069 14.8288 15.1581 15.5638 14.6838 16.0057C13.3875 17.2138 11.605 17.462 10.365 16.4645C8.8451 15.2386 7.56376 13.7435 6.585 12.0538C5.59816 10.3653 4.93891 8.50566 4.64188 6.57258V6.57196ZM8.44563 8.77821L9.78688 7.54821C10.1539 7.21148 10.412 6.77278 10.5281 6.28837C10.6441 5.80397 10.6128 5.29594 10.4381 4.82946L9.89438 3.37946C9.67255 2.78704 9.23314 2.30152 8.66571 2.02187C8.09829 1.74222 7.44558 1.6895 6.84063 1.87446C4.7375 2.51821 3.04875 4.40383 3.40625 6.75946C3.72688 8.84822 4.4387 10.8577 5.50438 12.6826C6.56005 14.5047 7.94202 16.1169 9.58125 17.4388C11.4406 18.9326 13.9244 18.4232 15.5363 16.9201C15.9975 16.4902 16.2773 15.9006 16.3188 15.2715C16.3603 14.6424 16.1602 14.0211 15.7594 13.5345L14.77 12.3332C14.4534 11.9485 14.0291 11.6671 13.5514 11.5252C13.0738 11.3834 12.5647 11.3874 12.0894 11.537L10.3538 12.0832C10.2761 12.0033 10.2 11.9218 10.1256 11.8388C9.76893 11.4442 9.45334 11.0143 9.18375 10.5557C8.92131 10.0929 8.70666 9.60452 8.54313 9.09821C8.50845 8.99222 8.47594 8.88553 8.44563 8.77821V8.77821Z" fill="white"/>
</svg>
