<svg width="700" height="201" viewBox="0 0 700 201" fill="none" xmlns="http://www.w3.org/2000/svg">
<rect width="700" height="200" fill="#1D2C45"/>
<path d="M653.671 166.6C653.671 165.839 653.974 165.109 654.512 164.57C655.05 164.032 655.78 163.73 656.542 163.73H659.111C660.15 163.73 661.147 163.317 661.882 162.582C662.617 161.847 663.029 160.85 663.029 159.811C663.029 158.772 662.617 157.775 661.882 157.04C661.147 156.306 660.15 155.893 659.111 155.893H640.107C639.375 155.889 638.674 155.595 638.158 155.076C637.642 154.557 637.352 153.855 637.352 153.123C637.352 152.392 637.642 151.691 638.159 151.174C638.676 150.657 639.377 150.367 640.107 150.367H648.719C649.759 150.367 650.755 149.954 651.49 149.219C652.225 148.484 652.638 147.488 652.638 146.448C652.638 145.409 652.225 144.413 651.49 143.678C650.755 142.943 649.759 142.53 648.719 142.53H647.385C646.367 142.526 645.392 142.119 644.674 141.398C643.956 140.677 643.552 139.701 643.552 138.683C643.552 137.666 643.956 136.689 644.674 135.969C645.392 135.248 646.367 134.841 647.385 134.837H663.833C664.872 134.837 665.869 134.424 666.604 133.689C667.339 132.954 667.752 131.958 667.752 130.918C667.752 129.879 667.339 128.883 666.604 128.148C665.869 127.413 664.872 127 663.833 127H623.271C622.232 127 621.235 127.413 620.501 128.148C619.766 128.883 619.353 129.879 619.353 130.918C619.353 131.958 619.766 132.954 620.501 133.689C621.235 134.424 622.232 134.837 623.271 134.837H623.903C624.407 134.837 624.907 134.936 625.373 135.13C625.839 135.323 626.262 135.607 626.618 135.964C626.974 136.322 627.256 136.746 627.448 137.212C627.639 137.679 627.737 138.179 627.735 138.683C627.737 139.188 627.639 139.688 627.448 140.154C627.256 140.621 626.974 141.045 626.618 141.403C626.262 141.76 625.839 142.043 625.373 142.237C624.907 142.43 624.407 142.53 623.903 142.53H605.918C604.879 142.53 603.883 142.943 603.148 143.678C602.413 144.413 602 145.409 602 146.448C602 147.488 602.413 148.484 603.148 149.219C603.883 149.954 604.879 150.367 605.918 150.367H619.382C620.114 150.367 620.816 150.657 621.335 151.173C621.854 151.69 622.148 152.39 622.152 153.123C622.148 153.856 621.855 154.559 621.336 155.077C620.818 155.596 620.115 155.889 619.382 155.893H614.014C612.974 155.893 611.978 156.306 611.243 157.04C610.508 157.775 610.095 158.772 610.095 159.811C610.099 160.849 610.513 161.844 611.247 162.578C611.981 163.312 612.975 163.726 614.014 163.73H629.558C630.319 163.73 631.049 164.032 631.588 164.57C632.126 165.109 632.429 165.839 632.429 166.6C632.429 167.362 632.126 168.092 631.588 168.63C631.049 169.168 630.319 169.471 629.558 169.471H618.492C617.452 169.471 616.456 169.884 615.721 170.619C614.986 171.353 614.573 172.35 614.573 173.389C614.573 174.428 614.986 175.425 615.721 176.16C616.456 176.895 617.452 177.308 618.492 177.308H675.014C675.529 177.308 676.038 177.206 676.514 177.009C676.989 176.812 677.421 176.524 677.785 176.16C678.149 175.796 678.437 175.364 678.634 174.889C678.831 174.413 678.933 173.904 678.933 173.389C678.933 172.875 678.831 172.365 678.634 171.89C678.437 171.414 678.149 170.982 677.785 170.619C677.421 170.255 676.989 169.966 676.514 169.769C676.038 169.572 675.529 169.471 675.014 169.471H656.499C655.745 169.46 655.026 169.152 654.497 168.615C653.968 168.078 653.671 167.354 653.671 166.6Z" fill="#263753"/>
<path d="M115.671 165.6C115.671 164.839 115.974 164.109 116.512 163.57C117.05 163.032 117.78 162.73 118.542 162.73H121.111C122.15 162.73 123.147 162.317 123.882 161.582C124.617 160.847 125.029 159.85 125.029 158.811C125.029 157.772 124.617 156.775 123.882 156.04C123.147 155.306 122.15 154.893 121.111 154.893H102.107C101.375 154.889 100.674 154.595 100.158 154.076C99.6416 153.557 99.3517 152.855 99.3517 152.123C99.3517 151.392 99.6421 150.691 100.159 150.174C100.676 149.657 101.377 149.367 102.107 149.367H110.719C111.759 149.367 112.755 148.954 113.49 148.219C114.225 147.484 114.638 146.488 114.638 145.448C114.638 144.409 114.225 143.413 113.49 142.678C112.755 141.943 111.759 141.53 110.719 141.53H109.385C108.367 141.526 107.392 141.119 106.674 140.398C105.956 139.677 105.552 138.701 105.552 137.683C105.552 136.666 105.956 135.689 106.674 134.969C107.392 134.248 108.367 133.841 109.385 133.837H125.833C126.872 133.837 127.869 133.424 128.604 132.689C129.339 131.954 129.752 130.958 129.752 129.918C129.752 128.879 129.339 127.883 128.604 127.148C127.869 126.413 126.872 126 125.833 126H85.2713C84.2321 126 83.2354 126.413 82.5006 127.148C81.7657 127.883 81.3529 128.879 81.3529 129.918C81.3529 130.958 81.7657 131.954 82.5006 132.689C83.2354 133.424 84.2321 133.837 85.2713 133.837H85.9029C86.4073 133.837 86.9068 133.936 87.3727 134.13C87.8386 134.323 88.2617 134.607 88.6178 134.964C88.9738 135.322 89.2558 135.746 89.4476 136.212C89.6393 136.679 89.737 137.179 89.7351 137.683C89.737 138.188 89.6393 138.688 89.4476 139.154C89.2558 139.621 88.9738 140.045 88.6178 140.403C88.2617 140.76 87.8386 141.043 87.3727 141.237C86.9068 141.43 86.4073 141.53 85.9029 141.53H67.9184C66.8792 141.53 65.8825 141.943 65.1477 142.678C64.4128 143.413 64 144.409 64 145.448C64 146.488 64.4128 147.484 65.1477 148.219C65.8825 148.954 66.8792 149.367 67.9184 149.367H81.3816C82.1138 149.367 82.8163 149.657 83.3354 150.173C83.8544 150.69 84.148 151.39 84.1518 152.123C84.148 152.856 83.8549 153.559 83.3362 154.077C82.8175 154.596 82.1151 154.889 81.3816 154.893H76.0135C74.9743 154.893 73.9777 155.306 73.2428 156.04C72.508 156.775 72.0952 157.772 72.0952 158.811C72.0989 159.849 72.513 160.844 73.247 161.578C73.981 162.312 74.9755 162.726 76.0135 162.73H91.558C92.3193 162.73 93.0494 163.032 93.5878 163.57C94.1261 164.109 94.4286 164.839 94.4286 165.6C94.4286 166.362 94.1261 167.092 93.5878 167.63C93.0494 168.168 92.3193 168.471 91.558 168.471H80.4917C79.4525 168.471 78.4558 168.884 77.721 169.619C76.9862 170.353 76.5733 171.35 76.5733 172.389C76.5733 173.428 76.9862 174.425 77.721 175.16C78.4558 175.895 79.4525 176.308 80.4917 176.308H137.014C137.529 176.308 138.038 176.206 138.514 176.009C138.989 175.812 139.421 175.524 139.785 175.16C140.149 174.796 140.437 174.364 140.634 173.889C140.831 173.413 140.933 172.904 140.933 172.389C140.933 171.875 140.831 171.365 140.634 170.89C140.437 170.414 140.149 169.982 139.785 169.619C139.421 169.255 138.989 168.966 138.514 168.769C138.038 168.572 137.529 168.471 137.014 168.471H118.499C117.745 168.46 117.026 168.152 116.497 167.615C115.968 167.078 115.671 166.354 115.671 165.6Z" fill="#263753"/>
<path d="M307.508 123.725V76.3508H262.236C260.554 76.3226 258.921 76.9166 257.65 78.0186C256.379 79.1207 255.56 80.6532 255.35 82.3221C255.259 83.2439 255.362 84.1745 255.651 85.0544C255.941 85.9342 256.412 86.7437 257.033 87.4308C257.654 88.118 258.412 88.6676 259.258 89.0444C260.104 89.4212 261.02 89.6167 261.946 89.6186H284.171C285.229 89.5935 286.264 89.9367 287.097 90.5896C287.931 91.2426 288.512 92.1646 288.741 93.1983C288.872 93.848 288.856 94.5187 288.697 95.1619C288.537 95.8051 288.236 96.4048 287.816 96.9178C287.397 97.4307 286.868 97.8441 286.27 98.1281C285.671 98.4122 285.017 98.5598 284.354 98.5603H273.691C272.006 98.5291 270.369 99.124 269.097 100.23C267.825 101.336 267.009 102.874 266.806 104.547C266.714 105.468 266.817 106.398 267.106 107.277C267.396 108.156 267.867 108.964 268.488 109.65C269.11 110.336 269.868 110.885 270.714 111.26C271.56 111.635 272.476 111.828 273.401 111.828H284.856C285.82 111.808 286.758 112.143 287.491 112.769C288.224 113.396 288.702 114.27 288.832 115.225C288.888 115.752 288.832 116.285 288.668 116.789C288.504 117.293 288.236 117.757 287.881 118.15C287.526 118.544 287.093 118.859 286.608 119.074C286.124 119.289 285.6 119.4 285.07 119.399H273.66C271.975 119.368 270.339 119.962 269.067 121.068C267.795 122.174 266.978 123.712 266.775 125.385C266.684 126.306 266.786 127.236 267.076 128.115C267.366 128.994 267.837 129.803 268.458 130.489C269.079 131.175 269.838 131.723 270.684 132.098C271.53 132.473 272.445 132.667 273.371 132.667H292.656C293.814 132.671 294.924 133.132 295.743 133.951C296.562 134.77 297.023 135.88 297.027 137.038C297.027 138.199 296.567 139.313 295.748 140.135C294.928 140.957 293.817 141.421 292.656 141.425H252.502C250.818 141.398 249.183 141.994 247.912 143.099C246.641 144.204 245.823 145.74 245.617 147.412C245.525 148.334 245.628 149.266 245.919 150.146C246.209 151.026 246.682 151.835 247.305 152.521C247.928 153.207 248.688 153.755 249.536 154.129C250.384 154.504 251.301 154.696 252.228 154.693H322.436C323.469 154.676 324.477 155.017 325.288 155.659C326.099 156.3 326.662 157.202 326.884 158.212C327.013 158.848 326.998 159.504 326.842 160.134C326.686 160.763 326.391 161.35 325.98 161.852C325.569 162.354 325.051 162.757 324.464 163.034C323.878 163.311 323.237 163.454 322.588 163.452H295.733C294.047 163.424 292.41 164.019 291.136 165.124C289.863 166.229 289.042 167.766 288.832 169.439C288.743 170.36 288.848 171.291 289.139 172.17C289.431 173.049 289.903 173.857 290.526 174.543C291.148 175.229 291.907 175.776 292.754 176.151C293.601 176.526 294.517 176.72 295.443 176.72H348.377V123.725H307.508Z" fill="#263753"/>
<path d="M359.345 133.367H348.53V200.483H359.345V133.367Z" fill="#8E2B2E"/>
<path d="M353.937 200.483V154.785C353.937 153.871 354.3 152.996 354.946 152.35C355.591 151.705 356.467 151.342 357.38 151.342H359.345V133.367H348.53V200.483H353.937Z" fill="#BB2D31"/>
<path d="M403.977 130.016V61.377H325.985C317.412 61.377 309.19 64.7825 303.128 70.8444C297.066 76.9064 293.661 85.1281 293.661 93.701V126.055C293.659 127.45 294.061 128.815 294.819 129.986L403.977 130.016Z" fill="#F1D5DF"/>
<path d="M294.529 86.5873C293.996 88.921 293.725 91.3071 293.722 93.701V126.056C293.722 127.987 294.489 129.839 295.855 131.204C297.22 132.57 299.072 133.337 301.003 133.337H403.977V86.5873H294.529Z" fill="#E4C1CE"/>
<path d="M403.977 129.818V115.271H293.722V126.055C293.726 127.372 294.09 128.662 294.773 129.788L403.977 129.818Z" fill="#D3ACBD"/>
<path d="M401.707 61.377H406.277C414.244 61.377 421.885 64.5418 427.518 70.1752C433.151 75.8086 436.316 83.4492 436.316 91.4161V129.772H371.683V91.4161C371.683 83.4518 374.846 75.8136 380.476 70.1806C386.106 64.5476 393.743 61.381 401.707 61.377Z" fill="#BB2D31"/>
<path d="M410.416 89.2188H394.825C393.373 89.2188 392.195 90.3964 392.195 91.8491V91.8597C392.195 93.3124 393.373 94.49 394.825 94.49H410.416C411.868 94.49 413.046 93.3124 413.046 91.8597V91.8491C413.046 90.3964 411.868 89.2188 410.416 89.2188Z" fill="#8E2B2E"/>
<path d="M394.836 89.2188C394.136 89.2188 393.464 89.497 392.969 89.9923C392.473 90.4875 392.195 91.1593 392.195 91.8597C392.198 92.5583 392.477 93.2273 392.972 93.7203C393.467 94.2132 394.137 94.49 394.836 94.49C395.533 94.4872 396.2 94.2092 396.693 93.7165C397.186 93.2238 397.464 92.5564 397.466 91.8597C397.466 91.1611 397.19 90.491 396.697 89.996C396.204 89.5011 395.535 89.2216 394.836 89.2188Z" fill="#B65457"/>
<path d="M414.846 103.297H390.406C388.765 103.297 387.435 104.627 387.435 106.268V106.683C387.435 108.324 388.765 109.654 390.406 109.654H414.846C416.487 109.654 417.817 108.324 417.817 106.683V106.268C417.817 104.627 416.487 103.297 414.846 103.297Z" fill="#8E2B2E"/>
<path d="M417.817 105.714H387.435C387.434 105.396 387.495 105.081 387.616 104.787C387.737 104.493 387.915 104.226 388.14 104.002C388.365 103.777 388.632 103.599 388.926 103.478C389.22 103.357 389.535 103.295 389.852 103.297H415.41C416.051 103.297 416.666 103.551 417.119 104.005C417.573 104.458 417.827 105.073 417.827 105.714H417.817Z" fill="#B65457"/>
<path d="M468.823 127.579H293.859C294.196 129.224 295.092 130.702 296.394 131.762C297.696 132.822 299.324 133.4 301.003 133.398H468.823C469.595 133.398 470.335 133.091 470.88 132.545C471.426 132 471.733 131.26 471.733 130.488C471.733 129.717 471.426 128.977 470.88 128.431C470.335 127.885 469.595 127.579 468.823 127.579Z" fill="#8E2B2E"/>
<path d="M441.221 62.0929C443.392 62.0929 445.151 60.3334 445.151 58.1628C445.151 55.9923 443.392 54.2328 441.221 54.2328C439.051 54.2328 437.291 55.9923 437.291 58.1628C437.291 60.3334 439.051 62.0929 441.221 62.0929Z" stroke="#D3ACBD" stroke-width="1.5" stroke-linecap="round" stroke-linejoin="round"/>
<path d="M253.461 129.772C253.464 130.554 253.235 131.319 252.803 131.97C252.37 132.621 251.754 133.129 251.033 133.43C250.311 133.73 249.517 133.809 248.75 133.658C247.983 133.506 247.279 133.13 246.726 132.577C246.174 132.025 245.798 131.32 245.646 130.553C245.494 129.787 245.574 128.992 245.874 128.271C246.175 127.549 246.683 126.933 247.334 126.501C247.985 126.068 248.75 125.839 249.531 125.842C250.572 125.846 251.57 126.262 252.306 126.998C253.042 127.734 253.457 128.731 253.461 129.772V129.772Z" stroke="#F1D5DF" stroke-width="1.5" stroke-linecap="round" stroke-linejoin="round"/>
<path d="M303.715 42.6101V51.9021" stroke="#651F37" stroke-width="1.5" stroke-linecap="round" stroke-linejoin="round"/>
<path d="M308.361 47.2561H299.068" stroke="#651F37" stroke-width="1.5" stroke-linecap="round" stroke-linejoin="round"/>
<path d="M403.977 146.681V155.973" stroke="#913258" stroke-width="1.5" stroke-linecap="round" stroke-linejoin="round"/>
<path d="M408.623 151.327H399.346" stroke="#913258" stroke-width="1.5" stroke-linecap="round" stroke-linejoin="round"/>
<path d="M364.478 71.9941H319.313C317.529 71.9941 316.084 73.44 316.084 75.2235V75.7262C316.084 77.5097 317.529 78.9555 319.313 78.9555H364.478C366.262 78.9555 367.708 77.5097 367.708 75.7262V75.2235C367.708 73.44 366.262 71.9941 364.478 71.9941Z" fill="#FBF3F6"/>
<path d="M350.875 95.1024C349.384 95.1024 347.925 95.5451 346.685 96.3743C345.444 97.2035 344.478 98.382 343.908 99.7607C343.338 101.139 343.189 102.656 343.481 104.119C343.773 105.582 344.493 106.926 345.549 107.98C346.605 109.034 347.95 109.751 349.414 110.04C350.877 110.329 352.394 110.178 353.772 109.605C355.149 109.032 356.326 108.063 357.152 106.821C357.979 105.579 358.419 104.119 358.416 102.627C358.416 101.638 358.221 100.658 357.841 99.7442C357.462 98.8303 356.907 98 356.206 97.3011C355.506 96.6021 354.675 96.0481 353.76 95.6709C352.845 95.2936 351.865 95.1004 350.875 95.1024Z" fill="#BB2D31"/>
<path d="M350.875 102.627C350.439 102.627 350.021 102.454 349.712 102.145C349.404 101.837 349.23 101.419 349.23 100.982V37.2938C349.23 36.8575 349.404 36.439 349.712 36.1305C350.021 35.822 350.439 35.6486 350.875 35.6486C351.093 35.6466 351.308 35.6877 351.51 35.7694C351.711 35.8512 351.894 35.9721 352.049 36.1251C352.203 36.278 352.325 36.4601 352.409 36.6607C352.493 36.8613 352.536 37.0765 352.536 37.2938V100.982C352.536 101.2 352.493 101.415 352.409 101.615C352.325 101.816 352.203 101.998 352.049 102.151C351.894 102.304 351.711 102.425 351.51 102.507C351.308 102.588 351.093 102.629 350.875 102.627Z" fill="#AD2B2F"/>
<path d="M332.367 39.8834H349.23V51.9021H332.367C331.794 51.9021 331.244 51.6742 330.838 51.2686C330.432 50.8629 330.204 50.3127 330.204 49.7391V42.0313C330.208 41.4602 330.438 40.914 330.843 40.5116C331.248 40.1092 331.796 39.8834 332.367 39.8834Z" fill="#F1D5DF"/>
<path d="M228.693 120.328V120.176C228.689 119.221 228.307 118.306 227.63 117.633C226.954 116.959 226.038 116.581 225.083 116.581H181.273C180.318 116.581 179.402 116.959 178.726 117.633C178.049 118.306 177.667 119.221 177.663 120.176V120.328C177.663 121.285 178.043 122.204 178.72 122.881C179.397 123.558 180.316 123.938 181.273 123.938H187.58C188.537 123.938 189.455 124.319 190.132 124.996C190.809 125.673 191.19 126.591 191.19 127.548C191.19 128.506 190.809 129.424 190.132 130.101C189.455 130.778 188.537 131.159 187.58 131.159H170.61C169.653 131.159 168.734 131.539 168.057 132.216C167.38 132.893 167 133.811 167 134.769V134.906C167 135.863 167.38 136.782 168.057 137.459C168.734 138.136 169.653 138.516 170.61 138.516H211.891C212.849 138.516 213.767 138.136 214.444 137.459C215.121 136.782 215.501 135.863 215.501 134.906V134.769C215.501 133.811 215.121 132.893 214.444 132.216C213.767 131.539 212.849 131.159 211.891 131.159H209.576C208.618 131.159 207.7 130.778 207.023 130.101C206.346 129.424 205.966 128.506 205.966 127.548C205.966 126.591 206.346 125.673 207.023 124.996C207.7 124.319 208.618 123.938 209.576 123.938H225.083C226.04 123.938 226.958 123.558 227.636 122.881C228.313 122.204 228.693 121.285 228.693 120.328Z" fill="#263753"/>
<path d="M569.672 100.39C569.672 99.756 569.924 99.1477 570.373 98.6992C570.821 98.2507 571.43 97.9987 572.064 97.9987H574.242C575.119 97.9987 575.96 97.6505 576.58 97.0306C577.2 96.4107 577.548 95.5699 577.548 94.6933C577.548 93.8166 577.2 92.9758 576.58 92.3559C575.96 91.736 575.119 91.3877 574.242 91.3877H558.248C557.631 91.3837 557.04 91.1369 556.604 90.7007C556.168 90.2645 555.921 89.674 555.917 89.0571C555.917 88.4376 556.162 87.8432 556.599 87.4037C557.036 86.9642 557.628 86.7152 558.248 86.7112H565.514C566.391 86.7112 567.231 86.363 567.851 85.7431C568.471 85.1232 568.819 84.2824 568.819 83.4057C568.819 82.529 568.471 81.6883 567.851 81.0684C567.231 80.4485 566.391 80.1002 565.514 80.1002H564.341C563.48 80.1002 562.655 79.7584 562.047 79.1499C561.438 78.5414 561.096 77.7162 561.096 76.8556C561.096 75.9951 561.438 75.1698 562.047 74.5613C562.655 73.9528 563.48 73.611 564.341 73.611H578.203C579.081 73.611 579.923 73.2633 580.546 72.6438C581.168 72.0243 581.52 71.1836 581.524 70.3055C581.52 69.4274 581.168 68.5867 580.546 67.9672C579.923 67.3477 579.081 67 578.203 67H544.02C543.586 67 543.156 67.0855 542.755 67.2516C542.354 67.4177 541.99 67.6612 541.683 67.9681C541.376 68.2751 541.133 68.6395 540.966 69.0405C540.8 69.4416 540.715 69.8714 540.715 70.3055C540.715 71.1822 541.063 72.0229 541.683 72.6429C542.303 73.2628 543.144 73.611 544.02 73.611H544.538C545.398 73.615 546.221 73.9582 546.828 74.5658C547.436 75.1734 547.779 75.9964 547.783 76.8556C547.783 77.7162 547.441 78.5414 546.833 79.1499C546.224 79.7584 545.399 80.1002 544.538 80.1002H529.305C528.429 80.1002 527.588 80.4485 526.968 81.0684C526.348 81.6883 526 82.529 526 83.4057C526 84.2824 526.348 85.1232 526.968 85.7431C527.588 86.363 528.429 86.7112 529.305 86.7112H540.669C541.289 86.7152 541.881 86.9642 542.318 87.4037C542.755 87.8432 543 88.4376 543 89.0571C542.996 89.674 542.749 90.2645 542.313 90.7007C541.877 91.1369 541.286 91.3837 540.669 91.3877H536.099C535.223 91.3877 534.382 91.736 533.762 92.3559C533.142 92.9758 532.794 93.8166 532.794 94.6933C532.794 95.5699 533.142 96.4107 533.762 97.0306C534.382 97.6505 535.223 97.9987 536.099 97.9987H549.215C549.529 97.9987 549.84 98.0606 550.13 98.1808C550.42 98.301 550.684 98.4771 550.906 98.6992C551.128 98.9213 551.304 99.185 551.424 99.4751C551.545 99.7653 551.606 100.076 551.606 100.39C551.606 100.704 551.545 101.015 551.424 101.306C551.304 101.596 551.128 101.859 550.906 102.081C550.684 102.303 550.42 102.48 550.13 102.6C549.84 102.72 549.529 102.782 549.215 102.782H539.968C539.092 102.782 538.251 103.13 537.631 103.75C537.011 104.37 536.663 105.211 536.663 106.087C536.663 106.964 537.011 107.805 537.631 108.425C538.251 109.045 539.092 109.393 539.968 109.393H587.678C588.554 109.393 589.395 109.045 590.015 108.425C590.635 107.805 590.983 106.964 590.983 106.087C590.983 105.211 590.635 104.37 590.015 103.75C589.395 103.13 588.554 102.782 587.678 102.782H572.064C571.75 102.782 571.439 102.72 571.149 102.6C570.859 102.48 570.595 102.303 570.373 102.081C570.151 101.859 569.975 101.596 569.855 101.306C569.734 101.015 569.672 100.704 569.672 100.39Z" fill="#263753"/>
<path d="M680 48.9656C680 48.5522 679.842 48.1557 679.56 47.8633C679.277 47.571 678.895 47.4067 678.496 47.4067H663.565V61.5512H671.636C672.035 61.5512 672.417 61.387 672.7 61.0946C672.982 60.8023 673.14 60.4057 673.14 59.9923C673.14 59.5788 672.982 59.1823 672.7 58.8899C672.417 58.5976 672.035 58.4333 671.636 58.4333H669.472C669.165 58.4333 668.871 58.3072 668.654 58.0826C668.438 57.8579 668.316 57.5533 668.316 57.2356C668.316 56.9179 668.438 56.6133 668.654 56.3887C668.871 56.1641 669.165 56.0379 669.472 56.0379H675.194C675.593 56.0379 675.976 55.8736 676.258 55.5813C676.54 55.2889 676.698 54.8924 676.698 54.479C676.698 54.0655 676.54 53.669 676.258 53.3766C675.976 53.0843 675.593 52.92 675.194 52.92H673.452C673.145 52.92 672.851 52.7938 672.635 52.5692C672.418 52.3446 672.296 52.04 672.296 51.7223C672.296 51.4047 672.418 51.1 672.635 50.8754C672.851 50.6508 673.145 50.5246 673.452 50.5246H678.496C678.693 50.5246 678.889 50.4843 679.072 50.4059C679.254 50.3276 679.42 50.2127 679.56 50.068C679.699 49.9232 679.81 49.7514 679.886 49.5622C679.961 49.3731 680 49.1704 680 48.9656Z" fill="#FDFFFF"/>
<path d="M601 48.9656C601 48.5522 601.159 48.1557 601.441 47.8633C601.723 47.571 602.105 47.4067 602.504 47.4067H617.435V61.5512H609.364C608.965 61.5512 608.583 61.387 608.301 61.0946C608.018 60.8023 607.86 60.4057 607.86 59.9923C607.86 59.5788 608.018 59.1823 608.301 58.8899C608.583 58.5976 608.965 58.4333 609.364 58.4333H611.528C611.835 58.4333 612.129 58.3072 612.346 58.0826C612.562 57.8579 612.684 57.5533 612.684 57.2356C612.684 56.9179 612.562 56.6133 612.346 56.3887C612.129 56.1641 611.835 56.0379 611.528 56.0379H605.897C605.499 56.0379 605.116 55.8736 604.834 55.5813C604.552 55.2889 604.393 54.8924 604.393 54.479C604.393 54.0655 604.552 53.669 604.834 53.3766C605.116 53.0843 605.499 52.92 605.897 52.92H607.732C608.038 52.92 608.332 52.7938 608.549 52.5692C608.765 52.3446 608.887 52.04 608.887 51.7223C608.887 51.4047 608.765 51.1 608.549 50.8754C608.332 50.6508 608.038 50.5246 607.732 50.5246H602.688C602.475 50.5516 602.26 50.5314 602.055 50.4653C601.851 50.3991 601.663 50.2886 601.503 50.1411C601.344 49.9935 601.216 49.8123 601.129 49.6096C601.043 49.4069 600.998 49.1874 601 48.9656Z" fill="#FDFFFF"/>
<path d="M665.033 43.6804H615.967V73.6804H665.033V43.6804Z" fill="#FFE5BD"/>
<path d="M665.033 73.6804L640.509 54.2318L615.967 73.6804H665.033Z" fill="#E6BA75"/>
<path d="M615.967 43.6804L638.143 61.266C638.82 61.801 639.648 62.0908 640.5 62.0908C641.352 62.0908 642.18 61.801 642.857 61.266L665.033 43.6804H615.967Z" fill="#EEA93B"/>
<path d="M591 124.361C591 123.942 590.836 123.54 590.543 123.243C590.25 122.947 589.853 122.78 589.439 122.78H573.941V137.129H582.318C582.733 137.129 583.13 136.962 583.422 136.665C583.715 136.369 583.88 135.967 583.88 135.547C583.88 135.128 583.715 134.726 583.422 134.429C583.13 134.132 582.733 133.966 582.318 133.966H580.072C579.754 133.966 579.449 133.838 579.224 133.61C578.999 133.382 578.872 133.073 578.872 132.751C578.872 132.429 578.999 132.119 579.224 131.892C579.449 131.664 579.754 131.536 580.072 131.536H586.012C586.426 131.536 586.823 131.369 587.116 131.073C587.409 130.776 587.573 130.374 587.573 129.954C587.573 129.535 587.409 129.133 587.116 128.836C586.823 128.54 586.426 128.373 586.012 128.373H584.203C583.885 128.373 583.58 128.245 583.355 128.017C583.13 127.789 583.004 127.48 583.004 127.158C583.004 126.836 583.13 126.527 583.355 126.299C583.58 126.071 583.885 125.943 584.203 125.943H589.439C589.644 125.943 589.847 125.902 590.036 125.823C590.226 125.743 590.398 125.627 590.543 125.48C590.688 125.333 590.803 125.159 590.881 124.967C590.96 124.775 591 124.569 591 124.361Z" fill="#FDFFFF"/>
<path d="M509 124.361C509 123.942 509.165 123.54 509.457 123.243C509.75 122.947 510.147 122.78 510.561 122.78H526.059V137.129H517.682C517.268 137.129 516.871 136.962 516.578 136.665C516.285 136.369 516.121 135.967 516.121 135.547C516.121 135.128 516.285 134.726 516.578 134.429C516.871 134.132 517.268 133.966 517.682 133.966H519.928C520.246 133.966 520.551 133.838 520.776 133.61C521.001 133.382 521.128 133.073 521.128 132.751C521.128 132.429 521.001 132.119 520.776 131.892C520.551 131.664 520.246 131.536 519.928 131.536H514.083C513.669 131.536 513.272 131.369 512.979 131.073C512.687 130.776 512.522 130.374 512.522 129.954C512.522 129.535 512.687 129.133 512.979 128.836C513.272 128.54 513.669 128.373 514.083 128.373H515.987C516.305 128.373 516.61 128.245 516.835 128.017C517.06 127.789 517.187 127.48 517.187 127.158C517.187 126.836 517.06 126.527 516.835 126.299C516.61 126.071 516.305 125.943 515.987 125.943H510.752C510.531 125.97 510.308 125.95 510.096 125.883C509.884 125.816 509.688 125.704 509.522 125.554C509.357 125.404 509.224 125.22 509.134 125.015C509.044 124.809 508.998 124.586 509 124.361Z" fill="#FDFFFF"/>
<path d="M575.464 119H524.536V149.433H575.464V119Z" fill="#FFE5BD"/>
<path d="M575.464 149.433L550.009 129.704L524.536 149.433H575.464Z" fill="#E6BA75"/>
<path d="M524.536 119L547.553 136.839C548.256 137.382 549.116 137.676 550 137.676C550.884 137.676 551.743 137.382 552.446 136.839L575.464 119H524.536Z" fill="#EFA93B"/>
<path d="M547 32.4462C547 32.0983 546.864 31.7648 546.621 31.5189C546.378 31.2729 546.049 31.1348 545.705 31.1348H532.854V43.0336H539.801C540.144 43.0336 540.473 42.8955 540.716 42.6495C540.959 42.4036 541.095 42.07 541.095 41.7222C541.095 41.3744 540.959 41.0408 540.716 40.7949C540.473 40.5489 540.144 40.4107 539.801 40.4107H537.938C537.674 40.4107 537.421 40.3046 537.234 40.1157C537.048 39.9267 536.943 39.6704 536.943 39.4032C536.943 39.136 537.048 38.8797 537.234 38.6907C537.421 38.5018 537.674 38.3956 537.938 38.3956H542.864C543.207 38.3956 543.536 38.2574 543.779 38.0115C544.022 37.7655 544.158 37.432 544.158 37.0842C544.158 36.7364 544.022 36.4028 543.779 36.1569C543.536 35.9109 543.207 35.7728 542.864 35.7728H541.364C541.1 35.7728 540.847 35.6666 540.66 35.4776C540.474 35.2887 540.369 35.0324 540.369 34.7652C540.369 34.498 540.474 34.2417 540.66 34.0527C540.847 33.8638 541.1 33.7576 541.364 33.7576H545.705C545.875 33.7576 546.044 33.7237 546.201 33.6578C546.358 33.5919 546.501 33.4953 546.621 33.3735C546.741 33.2517 546.836 33.1072 546.901 32.948C546.967 32.7889 547 32.6184 547 32.4462Z" fill="#FDFFFF"/>
<path d="M479 32.4462C479 32.0983 479.136 31.7648 479.379 31.5189C479.622 31.2729 479.951 31.1348 480.295 31.1348H493.146V43.0336H486.199C485.856 43.0336 485.527 42.8955 485.284 42.6495C485.041 42.4036 484.905 42.07 484.905 41.7222C484.905 41.3744 485.041 41.0408 485.284 40.7949C485.527 40.5489 485.856 40.4107 486.199 40.4107H488.062C488.326 40.4107 488.579 40.3046 488.766 40.1157C488.952 39.9267 489.057 39.6704 489.057 39.4032C489.057 39.136 488.952 38.8797 488.766 38.6907C488.579 38.5018 488.326 38.3956 488.062 38.3956H483.215C482.872 38.3956 482.543 38.2574 482.3 38.0115C482.057 37.7655 481.921 37.432 481.921 37.0842C481.921 36.7364 482.057 36.4028 482.3 36.1569C482.543 35.9109 482.872 35.7728 483.215 35.7728H484.794C485.058 35.7728 485.311 35.6666 485.498 35.4776C485.684 35.2887 485.789 35.0324 485.789 34.7652C485.789 34.498 485.684 34.2417 485.498 34.0527C485.311 33.8638 485.058 33.7576 484.794 33.7576H480.453C480.27 33.7804 480.084 33.7634 479.909 33.7077C479.733 33.6521 479.571 33.5591 479.433 33.435C479.296 33.3109 479.186 33.1584 479.111 32.9879C479.037 32.8174 478.999 32.6327 479 32.4462Z" fill="#FDFFFF"/>
<path d="M534.117 28H491.883V53.2371H534.117V28Z" fill="#FFE5BD"/>
<path d="M534.117 53.2371L513.008 36.8762L491.883 53.2371H534.117Z" fill="#E6BA75"/>
<path d="M491.883 28L510.971 42.7936C511.554 43.2437 512.267 43.4875 513 43.4875C513.733 43.4875 514.446 43.2437 515.029 42.7936L534.117 28H491.883Z" fill="#EEA93B"/>
</svg>
